<?xml version="1.0" encoding="UTF-8"?>
<svg id="Calque_1" xmlns="http://www.w3.org/2000/svg" version="1.1" viewBox="0 0 4648.95 1205.25">
  <!-- Generator: Adobe Illustrator 30.2.1, SVG Export Plug-In . SVG Version: 2.1.1 Build 1)  -->
  <defs>
    <style>
      .st0 {
        fill: #fff;
      }

      .st1 {
        fill: #fce800;
      }
    </style>
  </defs>
  <g>
    <path class="st0" d="M517.84,819.92c-51.7,42.11-118,63.16-198.89,63.16-63.38,0-119.25-13.55-167.61-40.64-48.38-27.09-85.69-65.67-111.95-115.7S0,619.16,0,554.11s13.33-122.16,40.02-171.36c26.69-49.19,64.42-87.34,113.2-114.45,48.78-27.09,105.28-40.66,169.5-40.66,80.05,0,145.5,21.06,196.38,63.17,50.86,42.12,82.55,99.45,95.06,171.98h-138.84c-9.19-36.69-27.53-65.86-55.05-87.55s-61.28-32.53-101.31-32.53c-54.2,0-97.77,19.61-130.7,58.8s-49.41,90.06-49.41,152.59,16.47,114.88,49.41,154.48,76.5,59.41,130.7,59.41c41.69,0,76.3-11.05,103.83-33.14,27.52-22.09,45.44-51.91,53.78-89.44h137.59c-12.52,74.22-44.62,132.39-96.31,174.5h0Z"/>
    <path class="st0" d="M1215.17,297.69c47.94,46.7,71.92,121.75,71.92,225.16v352.73h-135.09v-345.23c0-60.88-13.14-107.16-39.41-138.84s-64.41-47.53-114.44-47.53c-53.38,0-95.28,18.56-125.72,55.67s-45.64,87.77-45.64,151.97v323.97h-135.09V0h135.09v327.72c48.36-66.72,115.48-100.08,201.38-100.08,76.72,0,139.05,23.36,187,70.05Z"/>
    <path class="st0" d="M1991.3,758v117.58h-71.3c-41.7,0-71.72-8.75-90.06-26.27-18.34-17.5-27.52-42.94-27.52-76.3-48.38,73.38-118.83,110.06-211.39,110.06-71.72,0-129.27-16.67-172.62-50.03-43.36-33.34-65.03-79.22-65.03-137.59,0-65.88,23.34-116.53,70.05-151.97,46.69-35.44,114.66-53.16,203.88-53.16h161.36v-38.78c0-35.84-12.52-63.98-37.53-84.42s-59.62-30.66-103.81-30.66c-39.19,0-71.5,8.55-96.94,25.64s-40.66,39.83-45.66,68.17h-132.58c6.66-64.2,35.02-114.03,85.05-149.47s115.48-53.17,196.39-53.17c85.88,0,152.17,20.02,198.88,60.05,46.69,40.03,70.05,97.58,70.05,172.61v252.67c0,30.03,14.17,45.03,42.53,45.03h26.27-.02ZM1788.66,590.39h-167.61c-41.7,0-73.81,8.14-96.31,24.39-22.52,16.27-33.77,40.23-33.77,71.92,0,27.53,10.62,49.62,31.89,66.3,21.25,16.69,50.23,25.02,86.94,25.02,55.86,0,99.42-15,130.7-45.03,31.27-30.02,47.31-70.05,48.16-120.08v-22.52h0Z"/>
    <path class="st0" d="M2557.29,297.69c47.94,46.7,71.92,121.75,71.92,225.16v352.73h-136.34v-345.23c0-60.88-12.94-107.16-38.78-138.84s-63.78-47.53-113.81-47.53c-53.37,0-95.28,18.56-125.72,55.67s-45.64,88.19-45.64,153.22v322.72h-135.09V235.16h117.58l15,83.8c48.38-60.88,116.75-91.31,205.14-91.31,75.88,0,137.8,23.36,185.75,70.05h0Z"/>
    <path class="st0" d="M3342.17,235.16v614.16c0,90.06-26.69,159.89-80.06,209.52-53.38,49.61-135.92,74.42-247.66,74.42-86.72,0-157.19-19.39-211.39-58.16-54.2-38.8-84.22-93.62-90.06-164.5h137.59c8.34,35.86,27.52,63.59,57.55,83.19,30.02,19.59,68.8,29.39,116.33,29.39,122.58,0,183.88-59.62,183.88-178.86v-71.3c-46.7,70.05-116.33,105.06-208.89,105.06-58.38,0-110.5-13.12-156.36-39.39-45.88-26.27-81.73-63.8-107.58-112.58s-38.77-106.53-38.77-173.25,13.12-120.91,39.39-170.11c26.27-49.19,62.33-87.34,108.2-114.45,45.86-27.09,97.56-40.66,155.11-40.66,48.36,0,90.05,9.59,125.08,28.78,35.02,19.19,63.38,45.45,85.06,78.8l15-100.06h117.58,0ZM3157.04,706.09c34.19-38.78,51.3-89.02,51.3-150.73s-17.11-114.86-51.3-154.47-79.22-59.42-135.08-59.42-100.91,19.61-135.09,58.8-51.28,90.06-51.28,152.59,17.09,113.42,51.28,152.61,79.22,58.78,135.09,58.78,100.89-19.38,135.08-58.16Z"/>
    <path class="st0" d="M3459.11,383.38c26.27-49.61,62.95-87.97,110.08-115.08,47.11-27.09,101.11-40.66,161.98-40.66s116.11,12.52,163.23,37.53c47.11,25.03,84.22,60.47,111.31,106.33,27.09,45.88,41.06,99.66,41.91,161.34,0,16.69-1.25,33.8-3.75,51.3h-482.81v7.5c3.33,55.88,20.84,100.08,52.53,132.59,31.69,32.53,73.8,48.78,126.33,48.78,41.69,0,76.72-9.8,105.08-29.39,28.34-19.59,47.11-47.33,56.28-83.19h135.09c-11.69,65.05-43.16,118.42-94.44,160.11s-115.28,62.53-192,62.53c-66.72,0-124.88-13.55-174.5-40.64s-87.98-65.25-115.08-114.45c-27.09-49.19-40.64-106.31-40.64-171.38s13.12-123.61,39.39-173.23h0ZM3910.05,485.31c-5.84-46.69-24.41-83.17-55.67-109.44-31.28-26.27-70.67-39.41-118.2-39.41-44.2,0-82.36,13.56-114.45,40.66-32.11,27.11-50.66,63.17-55.66,108.19h343.98,0Z"/>
  </g>
  <rect class="st1" x="4105.68" y="704.53" width="543.27" height="138.99"/>
</svg>