<svg width="500" height="500" viewBox="0 0 500 500" fill="none" xmlns="http://www.w3.org/2000/svg">
<path id="c" d="M359.646 335.993C332.785 357.877 298.356 368.814 256.359 368.805C223.442 368.805 194.429 361.767 169.319 347.691C144.42 333.854 124.186 312.941 111.177 287.599C97.5443 261.604 90.723 231.724 90.7134 197.96C90.7038 164.195 97.6358 134.532 111.509 108.97C124.919 83.8759 145.342 63.227 170.287 49.5427C195.618 35.4765 224.982 28.4386 258.381 28.429C299.954 28.429 333.95 39.3614 360.368 61.226C386.787 83.0907 403.217 112.865 409.658 150.548H337.551C332.737 131.504 323.21 116.345 308.97 105.071C294.731 93.7969 277.194 88.1694 256.359 88.1887C228.198 88.1887 205.573 98.3652 188.484 118.718C171.394 139.071 162.84 165.485 162.821 197.96C162.821 230.887 171.375 257.628 188.484 278.183C205.592 298.739 228.217 309.026 256.359 309.045C278.012 309.045 295.983 303.307 310.27 291.831C324.558 280.354 333.868 264.873 338.2 245.386H409.658C403.159 283.974 386.489 314.177 359.646 335.993Z" fill="#222222"/>
<path d="M376.984 404.533H124.039V471.572H376.984V404.533Z" fill="#FCE800"/>
</svg>
