<?xml version="1.0" encoding="UTF-8"?>
<svg id="Calque_1" xmlns="http://www.w3.org/2000/svg" version="1.1" viewBox="0 0 500 500">
  <!-- Generator: Adobe Illustrator 29.8.2, SVG Export Plug-In . SVG Version: 2.1.1 Build 3)  -->
  <defs>
    <style>
      .st0 {
        fill: #fff;
      }

      .st1 {
        fill: #fce800;
      }
    </style>
  </defs>
  <path id="c" class="st0" d="M359.65,335.99c-26.86,21.88-61.29,32.82-103.29,32.81-32.92,0-61.93-7.04-87.04-21.11-24.9-13.84-45.13-34.75-58.14-60.09-13.63-25.99-20.45-55.88-20.46-89.64,0-33.76,6.92-63.43,20.8-88.99,13.41-25.09,33.83-45.74,58.78-59.43,25.33-14.07,54.69-21.1,88.09-21.11,41.57,0,75.57,10.93,101.99,32.8,26.42,21.86,42.85,51.64,49.29,89.32h-72.11c-4.81-19.04-14.34-34.2-28.58-45.48-14.24-11.27-31.78-16.9-52.61-16.88-28.16,0-50.79,10.18-67.88,30.53-17.09,20.35-25.64,46.77-25.66,79.24,0,32.93,8.55,59.67,25.66,80.22,17.11,20.56,39.73,30.84,67.88,30.86,21.65,0,39.62-5.74,53.91-17.21,14.29-11.48,23.6-26.96,27.93-46.44h71.46c-6.5,38.59-23.17,68.79-50.01,90.61Z"/>
  <path class="st1" d="M376.98,404.53H124.04v67.04h252.95v-67.04Z"/>
</svg>