<?xml version="1.0" encoding="UTF-8"?>
<svg id="Calque_1" data-name="Calque 1" xmlns="http://www.w3.org/2000/svg" viewBox="0 0 4648.95 1205.25">
  <g>
    <path d="M517.84,819.92c-51.7,42.11-118,63.16-198.89,63.16-63.38,0-119.25-13.55-167.61-40.64-48.38-27.09-85.69-65.67-111.95-115.7S0,619.16,0,554.11s13.33-122.16,40.02-171.36c26.69-49.19,64.42-87.34,113.2-114.45,48.78-27.09,105.28-40.66,169.5-40.66,80.05,0,145.5,21.06,196.38,63.17,50.86,42.12,82.55,99.45,95.06,171.98h-138.84c-9.19-36.69-27.53-65.86-55.05-87.55s-61.28-32.53-101.31-32.53c-54.2,0-97.77,19.61-130.7,58.8s-49.41,90.06-49.41,152.59,16.47,114.88,49.41,154.48,76.5,59.41,130.7,59.41c41.69,0,76.3-11.05,103.83-33.14,27.52-22.09,45.44-51.91,53.78-89.44h137.59c-12.52,74.22-44.62,132.39-96.31,174.5Z" style="fill: #fff;"/>
    <path d="M1215.17,297.69c47.94,46.7,71.92,121.75,71.92,225.16v352.73h-135.09v-345.23c0-60.88-13.14-107.16-39.41-138.84s-64.41-47.53-114.44-47.53c-53.38,0-95.28,18.56-125.72,55.67s-45.64,87.77-45.64,151.97v323.97h-135.09V0h135.09v327.72c48.36-66.72,115.48-100.08,201.38-100.08,76.72,0,139.05,23.36,187,70.05Z" style="fill: #fff;"/>
    <path d="M1991.3,758v117.58h-71.3c-41.7,0-71.72-8.75-90.06-26.27-18.34-17.5-27.52-42.94-27.52-76.3-48.38,73.38-118.83,110.06-211.39,110.06-71.72,0-129.27-16.67-172.62-50.03-43.36-33.34-65.03-79.22-65.03-137.59,0-65.88,23.34-116.53,70.05-151.97,46.69-35.44,114.66-53.16,203.88-53.16h161.36v-38.78c0-35.84-12.52-63.98-37.53-84.42s-59.62-30.66-103.81-30.66c-39.19,0-71.5,8.55-96.94,25.64s-40.66,39.83-45.66,68.17h-132.58c6.66-64.2,35.02-114.03,85.05-149.47s115.48-53.17,196.39-53.17c85.88,0,152.17,20.02,198.88,60.05,46.69,40.03,70.05,97.58,70.05,172.61v252.67c0,30.03,14.17,45.03,42.53,45.03h26.27ZM1788.66,590.39h-167.61c-41.7,0-73.81,8.14-96.31,24.39-22.52,16.27-33.77,40.23-33.77,71.92,0,27.53,10.62,49.62,31.89,66.3,21.25,16.69,50.23,25.02,86.94,25.02,55.86,0,99.42-15,130.7-45.03,31.27-30.02,47.31-70.05,48.16-120.08v-22.52Z" style="fill: #fff;"/>
    <path d="M2557.29,297.69c47.94,46.7,71.92,121.75,71.92,225.16v352.73h-136.34v-345.23c0-60.88-12.94-107.16-38.78-138.84s-63.78-47.53-113.81-47.53c-53.37,0-95.28,18.56-125.72,55.67s-45.64,88.19-45.64,153.22v322.72h-135.09V235.16h117.58l15,83.8c48.38-60.88,116.75-91.31,205.14-91.31,75.88,0,137.8,23.36,185.75,70.05Z" style="fill: #fff;"/>
    <path d="M3342.17,235.16v614.16c0,90.06-26.69,159.89-80.06,209.52-53.38,49.61-135.92,74.42-247.66,74.42-86.72,0-157.19-19.39-211.39-58.16-54.2-38.8-84.22-93.62-90.06-164.5h137.59c8.34,35.86,27.52,63.59,57.55,83.19,30.02,19.59,68.8,29.39,116.33,29.39,122.58,0,183.88-59.62,183.88-178.86v-71.3c-46.7,70.05-116.33,105.06-208.89,105.06-58.38,0-110.5-13.12-156.36-39.39-45.88-26.27-81.73-63.8-107.58-112.58s-38.77-106.53-38.77-173.25,13.12-120.91,39.39-170.11c26.27-49.19,62.33-87.34,108.2-114.45,45.86-27.09,97.56-40.66,155.11-40.66,48.36,0,90.05,9.59,125.08,28.78,35.02,19.19,63.38,45.45,85.06,78.8l15-100.06h117.58ZM3157.04,706.09c34.19-38.78,51.3-89.02,51.3-150.73s-17.11-114.86-51.3-154.47-79.22-59.42-135.08-59.42-100.91,19.61-135.09,58.8-51.28,90.06-51.28,152.59,17.09,113.42,51.28,152.61,79.22,58.78,135.09,58.78,100.89-19.38,135.08-58.16Z" style="fill: #fff;"/>
    <path d="M3459.11,383.38c26.27-49.61,62.95-87.97,110.08-115.08,47.11-27.09,101.11-40.66,161.98-40.66s116.11,12.52,163.23,37.53c47.11,25.03,84.22,60.47,111.31,106.33,27.09,45.88,41.06,99.66,41.91,161.34,0,16.69-1.25,33.8-3.75,51.3h-482.81v7.5c3.33,55.88,20.84,100.08,52.53,132.59,31.69,32.53,73.8,48.78,126.33,48.78,41.69,0,76.72-9.8,105.08-29.39,28.34-19.59,47.11-47.33,56.28-83.19h135.09c-11.69,65.05-43.16,118.42-94.44,160.11s-115.28,62.53-192,62.53c-66.72,0-124.88-13.55-174.5-40.64s-87.98-65.25-115.08-114.45c-27.09-49.19-40.64-106.31-40.64-171.38s13.12-123.61,39.39-173.23ZM3910.05,485.31c-5.84-46.69-24.41-83.17-55.67-109.44-31.28-26.27-70.67-39.41-118.2-39.41-44.2,0-82.36,13.56-114.45,40.66-32.11,27.11-50.66,63.17-55.66,108.19h343.98Z" style="fill: #fff;"/>
  </g>
  <rect x="4105.68" y="704.53" width="543.27" height="138.99" style="fill: #fce800;"/>
  <g>
    <path d="M48.68,1205.25c-12.03,0-21.75-2.76-29.16-8.28-7.41-5.52-11.12-13.14-11.12-22.86,0-6.75,1.69-12.23,5.07-16.44,3.38-4.2,8.03-7.45,13.96-9.76,5.93-2.3,12.69-3.95,20.27-4.94l60.55-6.67v11.62l-55.11,6.18c-9.23.83-16.06,2.56-20.51,5.19-4.45,2.64-6.67,7.17-6.67,13.59s2.14,10.75,6.43,13.96c4.28,3.21,11.04,4.82,20.27,4.82,10.05,0,19.03-1.52,26.94-4.57,7.91-3.05,14.25-7.7,19.03-13.96,4.78-6.26,7.17-14.25,7.17-23.97l3.46,1.24v19.53h-3.46c-3.63,11.21-10.47,19.9-20.51,26.07-10.05,6.18-22.24,9.27-36.58,9.27ZM122.83,1202.78h-15.82v-33.37l-1.24-.99v-41.27c0-11.86-2.8-20.35-8.4-25.46-5.6-5.11-15.16-7.66-28.67-7.66s-22.95,2.43-29.78,7.29c-6.84,4.86-10.26,12.73-10.26,23.6v.99H11.11v-.99c0-8.73,2.31-16.6,6.92-23.6,4.61-7,11.28-12.6,20.02-16.81,8.73-4.2,19.36-6.3,31.88-6.3s22.45,2.14,30.28,6.43c7.82,4.29,13.55,10.05,17.18,17.3,3.62,7.25,5.44,15.41,5.44,24.47v76.37Z" style="fill: #fff;"/>
    <path d="M166.82,1202.78h-17.55v-122.09h15.82v38.8l1.73,1.24v82.05ZM269.63,1202.78h-17.55v-68.71c0-12.69-3.17-22.49-9.52-29.41-6.34-6.92-16.52-10.38-30.52-10.38-15,0-26.28,4.29-33.86,12.85-7.58,8.57-11.37,20.76-11.37,36.58h-4.7l-.25-24.71h4.45c1.48-6.92,4.36-13.51,8.65-19.77,4.28-6.26,10.01-11.33,17.18-15.2,7.17-3.87,15.86-5.81,26.07-5.81,11.53,0,21.09,2.43,28.67,7.29,7.58,4.86,13.26,11.33,17.05,19.4,3.79,8.08,5.68,16.97,5.68,26.69v71.18Z" style="fill: #fff;"/>
    <path d="M370.96,1202.78h-37.07v-165.59h37.07v165.59ZM474.02,1070.55h-129.75v-33.37h129.75v33.37ZM470.32,1140.99h-126.05v-33.12h126.05v33.12Z" style="fill: #fff;"/>
    <path d="M572.14,1205.25c-18.13,0-33.82-3.5-47.08-10.5-13.27-7-23.48-16.89-30.65-29.66-7.17-12.77-10.75-27.8-10.75-45.11s3.58-32.33,10.75-45.11c7.17-12.77,17.38-22.65,30.65-29.66,13.26-7,28.96-10.5,47.08-10.5s32.25,2.72,44.86,8.16c12.6,5.44,22.37,13.18,29.29,23.23,6.92,10.05,10.38,22.16,10.38,36.33v3.71h-41.27v-3.71c0-10.88-3.34-18.95-10.01-24.22-6.67-5.27-17.51-7.91-32.5-7.91-12.03,0-21.71,1.61-29.04,4.82-7.33,3.21-12.65,8.4-15.94,15.57-3.3,7.17-4.94,16.93-4.94,29.29s1.65,21.92,4.94,29.16c3.29,7.25,8.61,12.48,15.94,15.69,7.33,3.21,17.01,4.82,29.04,4.82,14.99,0,25.83-2.63,32.5-7.91,6.67-5.27,10.01-13.35,10.01-24.22v-3.71h41.27v3.71c0,14.01-3.46,26.07-10.38,36.21-6.92,10.13-16.68,17.92-29.29,23.36-12.6,5.44-27.56,8.16-44.86,8.16Z" style="fill: #fff;"/>
    <path d="M773.57,1202.78h-104.05v-165.59h99.35c11.37,0,20.92,1.53,28.67,4.57,7.74,3.05,13.59,7.58,17.55,13.59,3.95,6.02,5.93,13.39,5.93,22.12,0,10.22-2.97,18.74-8.9,25.58-5.93,6.84-15.82,10.75-29.66,11.74v2.22c15.32,1.15,26.73,5.28,34.23,12.36,7.5,7.09,11.25,16.23,11.25,27.43,0,9.39-1.98,17.55-5.93,24.47-3.95,6.92-9.93,12.23-17.92,15.94-7.99,3.71-18.17,5.56-30.52,5.56ZM706.59,1070.55v32.38h58.08c6.92,0,11.86-1.27,14.83-3.83,2.97-2.55,4.45-6.63,4.45-12.23s-1.57-9.72-4.7-12.36c-3.13-2.63-8.16-3.96-15.08-3.96h-57.59ZM706.59,1133.58v35.84h62.53c7.58,0,13.01-1.36,16.31-4.08,3.29-2.72,4.94-7.37,4.94-13.96s-1.65-11.2-4.94-13.84c-3.3-2.63-8.74-3.95-16.31-3.95h-62.53Z" style="fill: #fff;"/>
    <path d="M920.87,1205.25c-12.03,0-21.75-2.76-29.16-8.28-7.41-5.52-11.12-13.14-11.12-22.86,0-6.75,1.69-12.23,5.07-16.44,3.38-4.2,8.03-7.45,13.96-9.76,5.93-2.3,12.69-3.95,20.27-4.94l60.55-6.67v11.62l-55.11,6.18c-9.23.83-16.06,2.56-20.51,5.19-4.45,2.64-6.67,7.17-6.67,13.59s2.14,10.75,6.43,13.96c4.28,3.21,11.04,4.82,20.27,4.82,10.05,0,19.03-1.52,26.94-4.57,7.91-3.05,14.25-7.7,19.03-13.96,4.78-6.26,7.17-14.25,7.17-23.97l3.46,1.24v19.53h-3.46c-3.63,11.21-10.47,19.9-20.51,26.07-10.05,6.18-22.24,9.27-36.58,9.27ZM995.01,1202.78h-15.82v-33.37l-1.24-.99v-41.27c0-11.86-2.8-20.35-8.4-25.46-5.6-5.11-15.16-7.66-28.67-7.66s-22.95,2.43-29.78,7.29c-6.84,4.86-10.26,12.73-10.26,23.6v.99h-17.55v-.99c0-8.73,2.31-16.6,6.92-23.6,4.61-7,11.28-12.6,20.02-16.81,8.73-4.2,19.36-6.3,31.88-6.3s22.45,2.14,30.28,6.43c7.82,4.29,13.55,10.05,17.18,17.3,3.62,7.25,5.44,15.41,5.44,24.47v76.37Z" style="fill: #fff;"/>
    <path d="M1039,1202.78h-17.55v-165.59h17.55v165.59Z" style="fill: #fff;"/>
    <path d="M1083.49,1202.78h-17.55v-165.59h17.55v165.59Z" style="fill: #fff;"/>
    <path d="M1127.97,1065.12h-17.55v-27.93h17.55v27.93ZM1127.97,1202.78h-17.55v-122.09h17.55v122.09Z" style="fill: #fff;"/>
    <path d="M1188.77,1205.25c-12.03,0-21.75-2.76-29.16-8.28-7.41-5.52-11.12-13.14-11.12-22.86,0-6.75,1.69-12.23,5.07-16.44,3.38-4.2,8.03-7.45,13.96-9.76,5.93-2.3,12.69-3.95,20.27-4.94l60.55-6.67v11.62l-55.11,6.18c-9.23.83-16.06,2.56-20.51,5.19-4.45,2.64-6.67,7.17-6.67,13.59s2.14,10.75,6.43,13.96c4.28,3.21,11.04,4.82,20.27,4.82,10.05,0,19.03-1.52,26.94-4.57,7.91-3.05,14.25-7.7,19.03-13.96,4.78-6.26,7.17-14.25,7.17-23.97l3.46,1.24v19.53h-3.46c-3.63,11.21-10.47,19.9-20.51,26.07-10.05,6.18-22.24,9.27-36.58,9.27ZM1262.91,1202.78h-15.82v-33.37l-1.24-.99v-41.27c0-11.86-2.8-20.35-8.4-25.46-5.6-5.11-15.16-7.66-28.67-7.66s-22.95,2.43-29.78,7.29c-6.84,4.86-10.26,12.73-10.26,23.6v.99h-17.55v-.99c0-8.73,2.31-16.6,6.92-23.6,4.61-7,11.28-12.6,20.02-16.81,8.73-4.2,19.36-6.3,31.88-6.3s22.45,2.14,30.28,6.43c7.82,4.29,13.55,10.05,17.18,17.3,3.62,7.25,5.44,15.41,5.44,24.47v76.37Z" style="fill: #fff;"/>
    <path d="M1306.9,1202.78h-17.55v-122.09h15.82v38.8l1.73,1.24v82.05ZM1409.72,1202.78h-17.55v-68.71c0-12.69-3.17-22.49-9.52-29.41-6.34-6.92-16.52-10.38-30.52-10.38-15,0-26.28,4.29-33.86,12.85-7.58,8.57-11.37,20.76-11.37,36.58h-4.7l-.25-24.71h4.45c1.48-6.92,4.36-13.51,8.65-19.77,4.28-6.26,10.01-11.33,17.18-15.2,7.17-3.87,15.86-5.81,26.07-5.81,11.53,0,21.09,2.43,28.67,7.29,7.58,4.86,13.26,11.33,17.05,19.4,3.79,8.08,5.68,16.97,5.68,26.69v71.18Z" style="fill: #fff;"/>
    <path d="M1494.24,1205.25c-13.02,0-24.39-2.72-34.11-8.16-9.72-5.44-17.22-12.93-22.49-22.49-5.27-9.55-7.91-20.51-7.91-32.87s2.63-23.31,7.91-32.87c5.27-9.55,12.77-17.05,22.49-22.49,9.72-5.44,21.09-8.16,34.11-8.16,11.37,0,21.63,2.1,30.77,6.3,9.14,4.2,16.44,10.01,21.87,17.42,5.44,7.41,8.16,16.06,8.16,25.95v1.98h-17.3v-1.48c0-10.88-3.83-19.28-11.49-25.21s-18.41-8.9-32.25-8.9c-16.31,0-28.18,4.16-35.59,12.48-7.41,8.32-11.12,19.98-11.12,34.97s3.71,26.65,11.12,34.97c7.41,8.32,19.28,12.48,35.59,12.48,13.84,0,24.59-2.92,32.25-8.77,7.66-5.85,11.49-14.29,11.49-25.33v-1.48h17.3v1.98c0,9.72-2.72,18.33-8.16,25.83-5.44,7.5-12.73,13.35-21.87,17.55-9.14,4.2-19.4,6.3-30.77,6.3Z" style="fill: #fff;"/>
    <path d="M1634.13,1205.25c-13.02,0-24.39-2.6-34.11-7.79-9.72-5.19-17.18-12.56-22.37-22.12-5.19-9.55-7.79-20.76-7.79-33.61s2.6-23.31,7.79-32.87c5.19-9.55,12.6-17.05,22.24-22.49,9.64-5.44,20.97-8.16,33.98-8.16,12.03,0,22.61,2.22,31.76,6.67,9.14,4.45,16.35,10.92,21.63,19.4,5.27,8.49,7.91,18.83,7.91,31.02,0,2.14-.12,4.16-.37,6.06-.25,1.9-.54,3.67-.86,5.31h-113.2v-10.88h102.57l-5.19,6.43c.16-1.65.29-3.29.37-4.94.08-1.65.12-3.38.12-5.19,0-12.85-3.87-22.61-11.62-29.29-7.75-6.67-18.87-10.01-33.37-10.01-16.64,0-28.67,4.16-36.08,12.48-7.41,8.32-11.12,19.73-11.12,34.23v3.95c0,14.67,3.71,26.2,11.12,34.6,7.41,8.4,19.52,12.6,36.33,12.6,14.33,0,24.92-2.51,31.76-7.54,6.83-5.02,10.26-11.99,10.26-20.88v-1.73h17.55v1.73c0,8.57-2.56,16.07-7.66,22.49-5.11,6.43-12.15,11.45-21.13,15.08-8.98,3.62-19.15,5.44-30.52,5.44Z" style="fill: #fff;"/>
  </g>
</svg>